<?xml version="1.0" standalone="no"?><!DOCTYPE svg PUBLIC "-//W3C//DTD SVG 1.1//EN" "http://www.w3.org/Graphics/SVG/1.1/DTD/svg11.dtd"><svg class="icon" height="512" viewBox="0 0 1024 1024" version="1.1" xmlns="http://www.w3.org/2000/svg"><path d="M293.3 430.5l0.1 0.1h-0.2z" fill="#B7C0CD" /><path d="M512.5 101.2C284.1 101.2 99 286.4 99 514.7s185.1 413.5 413.5 413.5S926 743.1 926 514.7 740.9 101.2 512.5 101.2z m50.8 583.5c-4 36.8-41 53.2-71.3 40.2-16.1-6.8-24.6-20.4-28.1-37.3-0.6-3.3-0.6-6.7-1-10.1 0.3-12.2 2.4-23.9 10.4-33.5 10.8-13 25.4-18.3 41.9-17.4 32.7 1.6 51.6 26.1 48.1 58.1z m4-324.9c-2.8 18.3-9 37.6-12.7 56.5-4.7 23.4-9.2 47.4-12.8 71-3.5 22.6-5.7 46.3-8.3 69.1-1.1 9.7-2 20.5-3.1 30.8h-33.3c-0.2 0-0.4-3-0.5-3.6-3.8-28.6-7-59-11.5-87.5-4.2-27-9.5-53.8-14.8-80.6-3.3-16.5-8.2-32.7-12.1-49.1-1.2-5.2-2.7-16.5-2.3-21.4 2.3-21.2 14.9-41.9 41.6-47.7 5.9-1.3 22.1-1.2 22.9-1.1 21 1.8 38.5 13.6 45.5 33.5 4.7 13.2 2.1 25.9 1.4 30.1z" fill="#EF4F33" /></svg>